<?xml version="1.0" standalone="no"?>
<!DOCTYPE svg PUBLIC "-//W3C//DTD SVG 20010904//EN"
 "http://www.w3.org/TR/2001/REC-SVG-20010904/DTD/svg10.dtd">
<svg version="1.0" xmlns="http://www.w3.org/2000/svg"
 width="1687.000000pt" height="1687.000000pt" viewBox="0 0 1687.000000 1687.000000"
 preserveAspectRatio="xMidYMid meet">
<metadata>
Created by potrace 1.14, written by Peter Selinger 2001-2017
</metadata>
<g transform="translate(0.000000,1687.000000) scale(0.100000,-0.100000)"
fill="#000000" stroke="none">
<path d="M8165 16050 c-539 -200 -688 -261 -882 -358 -153 -76 -284 -154 -383
-225 -69 -51 -84 -56 -76 -29 7 25 18 128 21 196 4 68 -9 104 -41 112 -55 14
-100 -19 -327 -239 -90 -88 -195 -170 -254 -199 l-64 -31 -97 13 c-87 11 -190
10 -247 -3 -296 -69 -557 -305 -655 -591 -11 -33 -23 -50 -36 -53 -54 -10
-242 -8 -334 3 -204 25 -334 14 -409 -34 -23 -14 -187 -147 -201 -162 -3 -3
-43 -39 -90 -80 -47 -41 -112 -99 -144 -130 -33 -30 -96 -89 -140 -130 -45
-41 -254 -248 -466 -460 -432 -431 -411 -405 -491 -640 -82 -246 -114 -293
-374 -554 -72 -72 -177 -174 -235 -226 -396 -362 -555 -533 -689 -740 -66
-102 -156 -274 -186 -355 -10 -27 -22 -54 -25 -60 -11 -15 -86 -249 -114 -355
-64 -240 -131 -610 -201 -1117 -3 -21 -12 -76 -20 -123 -8 -47 -17 -103 -20
-125 -2 -22 -7 -53 -11 -70 -3 -16 -13 -74 -23 -128 l-18 -98 44 -82 c141
-266 262 -523 343 -727 41 -103 146 -411 154 -453 3 -12 16 -65 29 -117 22
-84 37 -149 52 -231 3 -13 7 -35 10 -49 3 -14 10 -62 17 -107 10 -72 10 -87
-4 -117 -25 -51 -104 -70 -172 -41 -17 8 -18 -1 -13 -226 2 -129 8 -247 11
-264 28 -122 38 -151 158 -435 42 -98 249 -566 305 -690 58 -126 223 -501 223
-505 0 -2 11 -28 24 -57 43 -95 136 -319 136 -329 0 -5 5 -17 10 -27 20 -34
105 -261 185 -496 l82 -238 36 -4 c49 -4 84 -24 139 -79 65 -65 103 -154 123
-290 3 -22 10 -58 16 -80 6 -22 13 -48 14 -57 19 -96 83 -275 141 -389 143
-286 343 -478 598 -574 121 -46 184 -54 421 -54 352 0 452 -30 642 -190 39
-32 104 -76 144 -99 72 -39 240 -106 290 -116 13 -2 44 -9 69 -15 79 -18 142
-24 261 -25 68 -1 122 -6 130 -12 15 -12 174 -95 459 -241 321 -165 504 -267
659 -367 122 -79 113 -74 144 -80 41 -7 87 13 107 46 18 30 18 30 30 9 6 -12
11 -58 10 -104 -2 -132 -8 -120 58 -112 31 4 71 9 88 11 18 1 67 8 110 13 76
11 190 23 339 36 39 4 81 8 94 10 157 25 907 25 1051 0 14 -2 48 -6 75 -9 105
-12 245 -39 375 -73 74 -19 140 -35 145 -35 6 -1 35 6 65 15 242 70 485 10
839 -205 37 -23 55 -27 154 -33 57 -4 71 -1 87 15 20 20 20 73 -1 111 -5 11
-7 24 -4 29 20 32 222 101 397 135 40 8 84 17 98 20 178 40 198 34 299 -95 76
-96 100 -120 147 -145 26 -14 53 -25 59 -25 9 0 14 37 17 138 3 108 8 144 22
172 44 83 129 103 363 85 l71 -5 -1 132 c-2 116 1 138 18 170 21 37 204 234
450 482 89 90 169 161 219 193 l78 52 77 -82 c42 -45 97 -104 123 -132 l48
-50 0 51 c0 62 -30 162 -67 226 -16 26 -58 78 -96 116 -69 72 -91 119 -65 138
7 6 72 30 143 53 197 65 274 66 370 1 66 -44 68 -44 40 1 -15 23 -30 60 -32
81 -5 34 -2 41 31 71 52 48 93 59 256 66 120 6 152 11 186 28 77 41 130 142
140 272 7 78 -1 66 200 307 86 104 175 214 198 244 22 30 43 57 46 60 29 27
258 364 382 562 115 186 347 636 458 893 81 184 228 555 221 555 -12 -1 -127
-91 -206 -163 -129 -115 -225 -231 -344 -410 -73 -110 -102 -136 -160 -144
-27 -4 -45 1 -74 21 -26 18 -39 22 -42 13 -2 -6 -18 -57 -35 -112 -18 -55 -40
-122 -51 -150 l-19 -50 5 40 c2 22 7 80 10 128 l6 89 -43 -31 c-24 -17 -62
-46 -84 -64 -167 -130 -229 -179 -384 -298 -141 -109 -554 -420 -790 -595 -25
-19 -49 -37 -55 -42 -5 -4 -46 -34 -90 -65 -44 -31 -120 -86 -170 -121 -49
-36 -97 -70 -105 -76 -8 -6 -76 -54 -150 -107 -137 -98 -758 -517 -907 -611
-91 -58 -168 -91 -222 -96 -70 -6 -144 42 -183 119 -11 22 -22 42 -24 44 -3 3
-110 -87 -162 -137 -18 -17 -49 -33 -83 -42 -23 -7 -33 -4 -55 17 -25 23 -26
28 -22 94 l5 69 -26 -7 c-30 -7 -24 -8 -126 1 -74 7 -83 5 -109 -15 -16 -12
-41 -51 -57 -86 -35 -78 -49 -79 -89 -8 -37 66 -62 68 -71 5 -16 -110 -18
-127 -24 -165 -9 -54 -11 -54 -19 -1 -4 24 -13 50 -21 56 -30 25 -81 -12 -124
-89 l-28 -52 -52 80 c-60 92 -143 194 -178 216 -24 16 -24 16 -9 -7 41 -63 67
-206 42 -227 -10 -9 -21 -4 -46 19 -18 17 -34 29 -35 28 -2 -2 -6 -39 -10 -83
-4 -44 -9 -87 -11 -95 -1 -8 -3 -18 -3 -21 -1 -4 -13 -12 -29 -18 -15 -6 -63
-47 -107 -90 -119 -115 -107 -110 -310 -126 -33 -2 -80 -7 -105 -10 -25 -3
-65 -7 -90 -10 -136 -15 -439 -75 -550 -108 -41 -12 -54 -11 -140 10 -83 20
-270 62 -480 108 -36 8 -81 17 -100 20 -19 3 -60 10 -90 15 -30 5 -68 12 -85
14 -16 3 -41 8 -55 10 -27 6 -85 15 -140 22 -19 2 -42 6 -50 9 -8 2 -37 7 -65
10 -59 6 -107 12 -155 19 -35 5 -89 11 -190 21 -67 7 -143 14 -190 20 -19 2
-80 7 -135 10 -300 18 -601 91 -873 211 -128 57 -179 83 -339 177 l-123 71 39
20 c62 32 91 58 116 101 30 51 37 102 20 140 -8 17 -14 23 -14 14 -2 -43 -100
-106 -191 -123 -14 -3 -36 -7 -50 -10 -14 -3 -51 -11 -84 -17 l-59 -10 -39 38
c-22 21 -84 81 -138 133 -114 112 -379 363 -465 440 -33 30 -64 60 -70 66 -5
6 -77 73 -160 150 -82 76 -155 143 -161 149 -6 5 -67 62 -135 125 -111 104
-158 148 -348 328 -285 271 -692 690 -881 908 -202 232 -267 351 -470 859 -61
154 -134 327 -162 385 l-50 105 -21 -27 c-28 -34 -73 -57 -97 -51 -11 3 -32
17 -46 32 -32 31 -85 143 -86 180 -1 43 21 99 49 121 34 27 72 25 117 -5 l36
-24 0 22 c0 13 -4 48 -10 78 -5 30 -12 74 -15 99 -4 25 -9 61 -12 80 -7 49
-11 76 -18 140 -3 30 -8 62 -10 70 -2 8 -7 38 -10 65 -3 28 -10 73 -15 100 -5
28 -12 73 -15 100 -13 105 -16 123 -31 225 -30 198 -21 244 85 465 76 157 89
187 95 230 6 40 20 165 31 265 3 30 8 71 10 90 3 19 7 58 10 85 11 116 15 162
20 190 2 17 7 55 10 85 3 30 7 69 9 85 2 17 7 61 11 98 3 37 8 76 10 86 2 10
6 55 10 102 4 46 9 93 11 103 2 11 6 47 9 80 5 58 9 94 20 176 3 19 7 62 10
95 4 33 8 76 10 95 3 19 7 60 10 90 5 53 13 113 21 155 2 10 6 35 9 55 7 50
13 78 20 100 3 10 7 31 10 46 7 55 74 300 115 424 121 364 305 723 539 1050
89 125 245 321 355 445 97 110 517 529 681 680 66 61 134 124 151 140 18 17
69 64 115 105 45 41 117 107 158 146 154 145 222 194 457 329 93 54 223 130
289 170 335 201 574 342 669 394 28 16 92 51 141 78 103 57 364 187 445 222
179 77 446 176 529 197 9 2 59 15 111 29 91 25 123 32 235 55 67 14 82 16 135
25 25 4 52 9 60 10 26 5 113 15 165 20 28 2 79 8 115 11 36 4 227 8 425 9 198
1 374 5 390 9 95 22 163 80 197 165 18 48 22 78 23 216 2 202 3 197 -43 181
-82 -29 -155 -1 -290 109 -104 85 -152 116 -212 137 -25 9 -52 18 -60 22 -8 3
-87 -21 -175 -54z m-6002 -9701 c33 -15 79 -95 144 -247 66 -156 131 -286 155
-312 26 -28 7 -25 -52 7 -108 58 -154 116 -165 209 -12 99 -28 151 -76 242
-62 117 -62 127 -6 101z m-185 -17 c7 -5 34 -80 61 -168 28 -87 44 -152 38
-143 -7 9 -28 36 -48 60 -20 24 -60 72 -88 106 -57 70 -62 93 -26 128 25 26
41 30 63 17z"/>
<path d="M10737 15613 c-1 -1 -64 -3 -139 -4 -108 -2 -146 -6 -178 -20 -49
-22 -99 -73 -126 -129 -12 -27 -24 -39 -34 -36 -8 3 -35 12 -60 21 -50 19
-180 23 -345 12 -83 -5 -110 -12 -162 -37 -156 -77 -218 -264 -138 -420 24
-47 139 -174 200 -220 43 -33 159 -102 198 -119 23 -10 62 -28 87 -39 152 -69
392 -117 626 -126 69 -2 75 -5 225 -91 316 -182 914 -565 1199 -768 25 -18
128 -91 230 -163 102 -72 329 -234 505 -360 458 -330 649 -463 688 -479 73
-30 187 -2 361 89 93 50 118 53 110 14 -5 -27 -5 -212 0 -248 18 -120 31 -178
63 -275 46 -143 144 -388 179 -453 44 -78 147 -182 244 -246 97 -65 187 -156
227 -231 94 -178 102 -398 22 -661 -12 -40 -11 -43 58 -180 85 -169 216 -383
265 -435 7 -8 25 -31 40 -51 48 -63 206 -216 252 -243 54 -32 78 -84 73 -160
-5 -59 15 -124 46 -153 45 -41 78 -33 145 36 31 31 53 52 50 47 -4 -6 -9 -40
-13 -75 -3 -36 -11 -96 -16 -134 -5 -38 -12 -94 -14 -125 -3 -31 -7 -69 -10
-86 -28 -201 -24 -514 10 -655 16 -68 22 -53 29 75 4 55 8 111 10 125 3 14 7
61 11 105 4 44 9 89 10 100 2 11 6 43 10 70 18 144 52 353 70 435 4 14 9 39
11 55 20 114 129 486 160 548 16 31 7 34 -34 13 -36 -19 -69 -57 -125 -142
-32 -49 -58 -77 -83 -89 -20 -9 -39 -14 -42 -10 -4 4 -7 82 -8 173 -1 159 -11
421 -19 507 -3 22 -7 69 -10 105 -3 36 -7 85 -10 110 -2 25 -7 70 -10 100 -3
30 -10 89 -15 130 -5 41 -12 99 -15 129 -4 30 -8 61 -10 70 -2 14 -9 73 -21
171 -2 19 -9 69 -14 110 -18 123 -19 132 -26 200 -4 36 -8 72 -9 80 -2 8 -6
44 -10 79 -7 62 -16 78 -383 665 -206 331 -389 624 -407 651 -62 96 -90 140
-101 160 -80 143 -669 1065 -711 1114 -201 232 -493 489 -758 666 -374 251
-812 455 -1255 585 -41 12 -95 28 -120 36 -25 7 -58 16 -75 19 -100 21 -185
37 -215 40 -19 3 -71 9 -115 14 -67 7 -571 11 -578 4z"/>
<path d="M6475 11192 c-24 -2 -53 -13 -70 -27 l-30 -23 -3 -1211 -2 -1211 -78
-1 c-277 -2 -294 -4 -323 -56 -22 -37 -19 -169 5 -241 43 -127 130 -233 234
-284 l67 -33 2145 -3 c2016 -2 2148 -2 2190 15 136 52 242 171 280 313 16 60
21 166 9 213 -18 71 -27 73 -351 76 l-58 1 0 1198 c0 1172 0 1198 -20 1229
-11 18 -31 35 -46 39 -25 6 -3866 12 -3949 6z m3793 -202 l22 0 0 -1135 0
-1135 -22 -1 c-13 0 -850 -1 -1860 -2 l-1838 -2 0 1137 c0 1056 1 1137 17
1140 12 2 3563 1 3681 -2z m-2346 -2509 c66 -71 65 -71 528 -71 463 0 465 1
524 70 l28 34 849 0 c467 1 849 -1 849 -4 -1 -33 -56 -134 -87 -160 -58 -48
70 -46 -2185 -44 -2311 2 -2130 -3 -2189 61 -50 54 -90 138 -68 145 5 2 394 3
865 2 l855 0 31 -33z"/>
<path d="M8627 10449 c-27 -24 -653 -1265 -658 -1304 -7 -57 27 -102 83 -111
81 -14 68 -34 418 666 224 448 320 650 320 672 0 51 -36 89 -91 95 -38 4 -50
1 -72 -18z"/>
<path d="M7754 10280 c-16 -10 -129 -118 -251 -241 -222 -225 -242 -251 -229
-303 5 -22 403 -431 470 -483 41 -33 95 -31 128 5 34 36 44 82 24 119 -8 15
-96 109 -195 207 l-181 180 190 189 c105 105 191 195 191 201 6 51 5 64 -8 89
-23 46 -95 65 -139 37z"/>
<path d="M8925 10286 c-48 -21 -72 -80 -51 -129 6 -15 93 -110 194 -210 l182
-183 -188 -190 c-200 -202 -212 -220 -187 -280 25 -60 94 -83 145 -47 47 32
468 460 475 482 18 58 3 78 -237 318 -202 201 -264 254 -296 253 -4 -1 -20 -7
-37 -14z"/>
<path d="M9387 7903 c-53 -27 -61 -90 -18 -134 38 -38 83 -39 116 -3 68 73
-12 183 -98 137z"/>
<path d="M4302 7902 l-322 -2 -24 -50 c-15 -32 -20 -50 -12 -53 6 -2 73 -3
149 -2 l137 2 0 -439 c0 -344 3 -438 13 -437 6 0 30 8 52 18 l40 18 2 404 c1
222 2 411 2 420 1 13 18 15 114 14 61 0 119 1 127 3 13 3 58 101 48 105 -2 1
-148 1 -326 -1z"/>
<path d="M4843 7890 c-24 -11 -43 -23 -44 -27 0 -4 -2 -217 -2 -472 -2 -356 1
-465 10 -468 7 -3 31 6 54 19 l42 23 1 240 c1 217 3 243 20 272 33 54 88 75
172 64 20 -2 73 -55 84 -84 6 -17 10 -131 10 -283 0 -147 4 -254 9 -254 5 0
29 9 54 19 l44 19 1 233 c1 266 -7 310 -63 376 -49 57 -112 86 -190 86 -37 0
-75 -6 -95 -16 -18 -10 -36 -17 -40 -17 -5 0 -8 57 -8 128 0 158 0 162 -9 161
-5 0 -27 -9 -50 -19z"/>
<path d="M6389 7899 c-19 -3 -52 -14 -74 -25 l-40 -19 -1 -460 c-1 -253 2
-462 7 -465 17 -11 338 -3 382 9 71 20 137 77 175 152 l33 65 1 250 c1 220 -1
257 -17 302 -33 91 -130 173 -222 187 -54 9 -204 11 -244 4z m271 -121 c26
-14 57 -41 75 -66 l30 -43 1 -238 c1 -259 -3 -291 -52 -342 -45 -47 -82 -59
-190 -60 -55 -1 -109 -1 -121 0 l-23 1 0 385 0 385 118 0 c102 0 124 -3 162
-22z"/>
<path d="M12473 7890 c-27 -12 -43 -26 -43 -37 -4 -154 -1 -925 4 -930 3 -3
27 4 54 16 l47 22 0 242 c0 264 3 277 62 321 38 28 120 27 161 -3 60 -42 62
-54 62 -341 0 -144 5 -260 9 -260 5 0 30 9 54 19 l45 19 0 243 c1 217 -1 247
-19 295 -34 89 -123 154 -219 158 -44 2 -111 -12 -126 -27 -26 -25 -31 -2 -30
138 1 91 -3 145 -9 144 -5 0 -29 -9 -52 -19z"/>
<path d="M8610 7884 l-45 -15 0 -478 0 -478 50 21 50 22 3 172 c2 127 6 172
15 173 6 0 64 2 127 3 127 4 165 13 222 52 118 82 160 245 97 378 -27 59 -106
130 -166 150 -63 21 -289 21 -353 0z m348 -114 c135 -76 131 -269 -8 -340 -27
-14 -62 -18 -157 -19 l-123 -2 0 194 0 194 123 -2 c109 -1 128 -4 165 -25z"/>
<path d="M5760 7650 c-81 -15 -160 -84 -186 -162 -24 -72 -17 -387 10 -437 83
-154 293 -183 404 -56 47 53 64 92 70 162 l5 63 -52 -21 c-47 -20 -52 -26 -62
-65 -28 -111 -162 -149 -242 -68 -28 27 -46 90 -31 104 5 4 93 45 197 91 l187
83 0 51 c0 78 -25 138 -76 185 -68 63 -141 85 -224 70z m118 -119 c34 -18 64
-60 65 -90 2 -30 -1 -32 -132 -91 -73 -33 -137 -58 -141 -55 -8 5 -5 108 4
152 8 34 48 76 86 92 27 11 90 7 118 -8z"/>
<path d="M7263 7645 c-60 -18 -120 -69 -150 -129 -25 -50 -26 -56 -26 -231 1
-195 6 -221 59 -284 63 -75 177 -106 271 -74 55 19 118 79 144 138 20 46 35
160 21 153 -4 -2 -28 -12 -54 -23 -40 -17 -47 -24 -52 -56 -25 -154 -253 -156
-281 -1 -4 27 -1 30 58 57 34 15 94 42 132 59 39 18 100 45 137 61 l67 29 -3
61 c-2 33 -12 81 -23 107 -47 106 -185 167 -300 133z m157 -125 c25 -18 60
-75 60 -98 0 -5 -22 -19 -48 -30 -27 -12 -82 -36 -123 -55 -128 -59 -120 -61
-118 25 2 91 25 140 77 167 45 23 112 19 152 -9z"/>
<path d="M10952 7632 l-52 -27 1 -240 c1 -269 8 -307 68 -370 45 -48 100 -75
163 -79 108 -8 196 43 243 138 26 53 26 53 27 320 0 147 -1 269 -4 271 -3 3
-27 -4 -54 -15 l-49 -21 0 -237 c0 -261 -4 -283 -58 -323 -43 -32 -123 -33
-164 -3 -62 47 -64 57 -65 348 -1 146 -2 266 -2 265 -1 0 -25 -13 -54 -27z"/>
<path d="M11868 7650 c-42 -12 -87 -48 -115 -94 -37 -57 -37 -126 0 -188 30
-51 70 -75 150 -88 70 -11 100 -26 127 -63 57 -77 5 -180 -98 -194 -82 -11
-163 67 -157 152 1 19 -1 35 -5 35 -4 0 -29 -9 -55 -21 l-47 -21 6 -41 c8 -48
42 -110 82 -150 83 -84 244 -83 328 0 51 51 67 85 73 153 13 136 -98 242 -260
249 -29 1 -67 47 -67 79 0 93 136 115 171 29 7 -18 13 -33 14 -35 1 -1 23 7
48 18 l47 21 -15 35 c-42 101 -132 150 -227 124z"/>
<path d="M7808 7629 c-21 -11 -38 -21 -38 -24 0 -4 10 -30 31 -80 10 -25 85
-213 175 -440 37 -93 67 -171 68 -172 1 0 28 10 61 23 l60 25 54 132 c30 72
80 195 112 272 31 77 67 164 78 192 l21 53 -40 20 c-21 11 -43 20 -48 20 -5 0
-33 -60 -62 -132 -29 -73 -61 -152 -71 -175 -11 -23 -19 -48 -19 -55 0 -8 -4
-18 -8 -23 -5 -6 -24 -49 -42 -97 -18 -49 -36 -88 -40 -88 -5 0 -59 128 -121
285 -61 157 -117 285 -123 285 -6 -1 -28 -10 -48 -21z"/>
<path d="M9419 7627 l-45 -22 1 -250 c1 -244 2 -251 25 -299 81 -160 294 -191
410 -60 18 21 39 53 47 73 15 36 25 141 13 141 -24 0 -100 -43 -100 -57 0 -9
-11 -35 -25 -58 -58 -100 -191 -98 -245 3 -16 29 -18 64 -19 280 0 297 1 272
-8 271 -5 0 -29 -10 -54 -22z"/>
<path d="M10185 7630 l-40 -19 -5 -113 c-3 -62 -3 -183 0 -268 5 -143 7 -158
29 -190 62 -89 121 -123 217 -124 55 0 78 4 107 22 l37 21 0 -52 c0 -68 -27
-112 -83 -137 -66 -29 -134 -10 -176 49 -20 28 -22 28 -68 19 -27 -6 -49 -11
-51 -13 -8 -7 22 -59 55 -96 114 -126 312 -102 401 49 l27 47 2 413 c1 226 0
412 -3 412 -3 0 -27 -9 -53 -21 l-49 -20 0 -238 c-1 -130 -5 -248 -10 -261
-30 -77 -127 -111 -200 -70 -74 42 -76 51 -77 347 0 169 -4 263 -10 262 -5 0
-28 -9 -50 -19z"/>
<path d="M8319 6434 c-83 -46 -108 -123 -104 -316 2 -103 5 -123 28 -170 40
-80 80 -103 182 -103 74 0 86 3 123 29 43 29 77 87 85 142 6 41 -2 52 -37 50
-26 -2 -30 -6 -34 -36 -8 -72 -57 -120 -128 -125 -55 -3 -101 24 -127 78 -15
29 -19 62 -19 151 -2 202 32 259 154 259 59 0 118 -65 118 -128 0 -26 1 -27
48 -29 26 -1 27 1 24 39 -11 116 -90 185 -211 185 -41 0 -68 -7 -102 -26z"/>
<path d="M10967 6442 c-23 -25 -21 -58 3 -82 26 -26 50 -25 78 0 26 24 28 47
6 78 -19 27 -64 29 -87 4z"/>
<path d="M3930 6151 l0 -301 38 0 37 0 -1 135 c0 74 3 135 7 135 5 0 63 -61
130 -135 121 -134 122 -135 165 -135 47 0 52 4 32 24 -7 7 -45 48 -84 92 -39
43 -90 99 -113 124 -22 25 -41 52 -41 60 0 8 12 29 28 45 46 51 198 229 206
243 5 9 -4 12 -37 12 -43 0 -46 -2 -120 -87 -41 -49 -85 -99 -96 -113 -12 -14
-31 -36 -42 -48 -11 -13 -24 -21 -27 -17 -4 4 -7 64 -7 133 l-1 127 -37 3 -37
3 0 -300z"/>
<path d="M10287 6443 c-2 -5 -3 -57 -2 -116 1 -110 -5 -134 -25 -97 -25 46
-124 69 -194 45 -51 -18 -102 -69 -120 -120 -8 -24 -13 -71 -12 -108 2 -53 8
-75 32 -114 63 -103 213 -127 288 -44 23 25 38 18 32 -15 -4 -22 -1 -24 30
-24 23 0 34 5 34 15 0 8 1 125 1 260 0 135 -1 263 -1 285 0 38 -2 40 -29 40
-17 0 -32 -3 -34 -7z m-69 -243 c53 -32 79 -115 60 -190 -26 -98 -144 -140
-223 -78 -82 65 -64 241 29 278 38 16 100 11 134 -10z"/>
<path d="M4891 6265 c-82 -39 -121 -111 -116 -217 6 -126 85 -208 202 -208 75
0 117 16 157 60 44 49 47 77 9 82 -22 2 -32 -3 -46 -25 -53 -84 -204 -70 -241
23 -9 22 -16 45 -16 50 0 6 66 10 170 10 187 0 175 -5 170 65 -9 140 -156 221
-289 160z m158 -59 c33 -18 64 -60 59 -84 -3 -15 -20 -17 -135 -18 -135 -1
-135 -1 -118 41 29 66 125 96 194 61z"/>
<path d="M5775 6274 c-85 -29 -133 -93 -139 -189 -11 -146 74 -245 209 -245
83 0 148 38 184 107 9 19 7 22 -19 31 -27 10 -31 8 -51 -20 -60 -84 -199 -74
-240 16 -10 23 -19 47 -19 54 0 9 41 12 170 12 129 0 170 3 171 13 4 27 -2 74
-12 107 -31 96 -151 150 -254 114z m142 -74 c35 -21 66 -70 55 -87 -8 -12
-262 -13 -262 0 0 4 0 13 0 20 0 17 38 60 65 75 32 18 106 14 142 -8z"/>
<path d="M6665 6279 c-17 -5 -45 -23 -63 -40 -18 -17 -33 -29 -33 -25 -1 3 -2
14 -3 24 -2 29 -14 39 -42 38 l-27 -2 -1 -297 -1 -297 35 0 35 0 -1 107 c-1
60 1 112 4 116 2 5 16 -3 31 -17 50 -47 129 -60 198 -31 82 35 117 96 116 205
-1 107 -32 168 -103 205 -36 19 -104 25 -145 14z m135 -94 c68 -65 62 -204
-11 -258 -34 -25 -93 -32 -132 -16 -62 25 -90 71 -90 147 0 108 55 166 151
159 41 -3 59 -10 82 -32z"/>
<path d="M9218 6277 c-162 -39 -201 -303 -59 -401 55 -38 140 -47 206 -21 52
19 109 81 120 128 33 143 -22 259 -139 292 -55 16 -70 16 -128 2z m152 -85
c38 -28 55 -70 54 -133 -1 -71 -29 -119 -83 -144 -101 -45 -201 26 -201 143 0
138 126 211 230 134z"/>
<path d="M11836 6275 c-21 -7 -51 -28 -66 -47 -27 -32 -27 -32 -28 -8 0 55 -1
58 -32 56 -23 0 -30 -6 -31 -21 -1 -26 -1 -376 0 -392 1 -8 15 -13 34 -13 l32
0 0 123 c-2 179 19 226 108 247 44 9 89 -9 114 -46 15 -23 18 -51 20 -164 1
-74 2 -141 2 -147 1 -8 14 -13 31 -13 35 0 33 -11 32 180 -2 154 -12 191 -67
228 -42 29 -98 36 -149 17z"/>
<path d="M12644 6271 c-57 -22 -78 -40 -106 -86 -19 -34 -23 -54 -23 -127 0
-80 2 -89 30 -130 71 -101 226 -119 293 -33 19 24 22 25 23 9 3 -48 -2 -147
-7 -155 -3 -5 -63 -9 -135 -9 -71 0 -129 -3 -130 -7 0 -5 -2 -18 -5 -30 l-4
-23 153 0 c116 0 158 3 173 14 18 14 19 29 19 298 0 308 4 284 -50 279 -10 -1
-15 -12 -15 -33 l0 -33 -23 26 c-46 54 -121 70 -193 40z m146 -68 c41 -24 70
-82 70 -139 -2 -152 -150 -216 -250 -110 -19 21 -25 40 -28 90 -5 76 16 129
62 157 39 24 108 25 146 2z"/>
<path d="M10842 6248 c3 -33 17 -39 80 -34 37 3 48 0 52 -13 2 -9 3 -77 2
-151 -1 -112 -4 -135 -16 -136 -8 -1 -42 -2 -75 -3 -60 -1 -60 -1 -60 -31 l0
-30 176 0 c165 0 177 1 182 19 8 34 -7 43 -75 43 l-65 1 1 174 c1 107 -3 177
-9 181 -5 4 -52 7 -102 7 l-93 1 2 -28z"/>
</g>
</svg>
